{
  "accessors": [
    {
      "bufferView": 2,
      "componentType": 5126,
      "count": 9666,
      "max": [
        12.396347045898438,
        31.824813842773438,
        15.557510375976563
      ],
      "min": [
        -29.871315002441406,
        -0.11912155151367188,
        1.1694183349609375
      ],
      "type": "VEC3"
    },
    {
      "bufferView": 2,
      "byteOffset": 115992,
      "componentType": 5126,
      "count": 9666,
      "max": [
        1.0,
        1.0,
        1.0
      ],
      "min": [
        -1.0,
        -1.0,
        -1.0
      ],
      "type": "VEC3"
    },
    {
      "bufferView": 3,
      "componentType": 5126,
      "count": 9666,
      "max": [
        1.0,
        1.0,
        1.0,
        1.0
      ],
      "min": [
        -1.0,
        -1.0,
        -1.0,
        -1.0
      ],
      "type": "VEC4"
    },
    {
      "bufferView": 1,
      "componentType": 5126,
      "count": 9666,
      "max": [
        1.0,
        0.9950806498527527
      ],
      "min": [
        0.0,
        0.0
      ],
      "type": "VEC2"
    },
    {
      "bufferView": 0,
      "componentType": 5125,
      "count": 33153,
      "type": "SCALAR"
    },
    {
      "bufferView": 2,
      "byteOffset": 231984,
      "componentType": 5126,
      "count": 635,
      "max": [
        28.149904251098633,
        38.54902267456055,
        17.064369201660156
      ],
      "min": [
        -52.85768127441406,
        -0.2464427649974823,
        -9.893031120300293
      ],
      "type": "VEC3"
    },
    {
      "bufferView": 2,
      "byteOffset": 239604,
      "componentType": 5126,
      "count": 635,
      "max": [
        1.0,
        1.0,
        1.0
      ],
      "min": [
        -1.0,
        -1.0,
        -1.0
      ],
      "type": "VEC3"
    },
    {
      "bufferView": 3,
      "byteOffset": 154656,
      "componentType": 5126,
      "count": 635,
      "max": [
        0.9999895691871643,
        1.0,
        1.0,
        1.0
      ],
      "min": [
        -1.0,
        -1.0,
        -1.0,
        -1.0
      ],
      "type": "VEC4"
    },
    {
      "bufferView": 1,
      "byteOffset": 77328,
      "componentType": 5126,
      "count": 635,
      "max": [
        0.9927619695663452,
        0.9969477653503418
      ],
      "min": [
        0.0,
        0.0
      ],
      "type": "VEC2"
    },
    {
      "bufferView": 0,
      "byteOffset": 132612,
      "componentType": 5125,
      "count": 1719,
      "type": "SCALAR"
    }
  ],
  "asset": {
    "extras": {
      "author": "Melissa Descubes (https://sketchfab.com/Melissadescubes)",
      "license": "CC-BY-NC-ND-4.0 (http://creativecommons.org/licenses/by-nc-nd/4.0/)",
      "source": "https://sketchfab.com/3d-models/dirty-street-6e6b61361f5e483484f4c8b924a0beee",
      "title": "Dirty Street"
    },
    "generator": "Sketchfab-14.98.0",
    "version": "2.0"
  },
  "bufferViews": [
    {
      "buffer": 0,
      "byteLength": 139488,
      "name": "floatBufferViews",
      "target": 34963
    },
    {
      "buffer": 0,
      "byteLength": 82408,
      "byteOffset": 139488,
      "byteStride": 8,
      "name": "floatBufferViews",
      "target": 34962
    },
    {
      "buffer": 0,
      "byteLength": 247224,
      "byteOffset": 221896,
      "byteStride": 12,
      "name": "floatBufferViews",
      "target": 34962
    },
    {
      "buffer": 0,
      "byteLength": 164816,
      "byteOffset": 469120,
      "byteStride": 16,
      "name": "floatBufferViews",
      "target": 34962
    }
  ],
  "buffers": [
    {
      "byteLength": 633936,
      "uri": "scene.bin"
    }
  ],
  "extensionsUsed": [
    "KHR_materials_emissive_strength"
  ],
  "images": [
    {
      "uri": "textures/aiStandardSurface1_baseColor.png"
    },
    {
      "uri": "textures/aiStandardSurface1_emissive.png"
    },
    {
      "uri": "textures/aiStandardSurface1_normal.png"
    },
    {
      "uri": "textures/lambert4_baseColor.png"
    },
    {
      "uri": "textures/lambert4_normal.png"
    }
  ],
  "materials": [
    {
      "doubleSided": true,
      "emissiveFactor": [
        1.0,
        1.0,
        1.0
      ],
      "emissiveTexture": {
        "index": 1
      },
      "extensions": {
        "KHR_materials_emissive_strength": {
          "emissiveStrength": 5.470492862454438
        }
      },
      "name": "aiStandardSurface1",
      "normalTexture": {
        "index": 2
      },
      "pbrMetallicRoughness": {
        "baseColorTexture": {
          "index": 0
        },
        "metallicFactor": 0.0
      }
    },
    {
      "doubleSided": true,
      "name": "lambert4",
      "normalTexture": {
        "index": 4,
        "scale": 0.5775255696017358
      },
      "pbrMetallicRoughness": {
        "baseColorTexture": {
          "index": 3
        },
        "metallicFactor": 0.0,
        "roughnessFactor": 0.6
      }
    }
  ],
  "meshes": [
    {
      "name": "Plane.008_aiStandardSurface1_0",
      "primitives": [
        {
          "attributes": {
            "NORMAL": 1,
            "POSITION": 0,
            "TANGENT": 2,
            "TEXCOORD_0": 3
          },
          "indices": 4,
          "material": 0,
          "mode": 4
        }
      ]
    },
    {
      "name": "Plane.008_lambert4_0",
      "primitives": [
        {
          "attributes": {
            "NORMAL": 6,
            "POSITION": 5,
            "TANGENT": 7,
            "TEXCOORD_0": 8
          },
          "indices": 9,
          "material": 1,
          "mode": 4
        }
      ]
    }
  ],
  "nodes": [
    {
      "children": [
        1
      ],
      "matrix": [
        0.10200993716716766,
        0.0,
        0.0,
        0.0,
        0.0,
        2.265075619671101e-17,
        -0.10200993716716766,
        0.0,
        0.0,
        0.10200993716716766,
        2.265075619671101e-17,
        0.0,
        0.0,
        0.0,
        0.0,
        1.0
      ],
      "name": "Sketchfab_model"
    },
    {
      "children": [
        2
      ],
      "matrix": [
        1.0,
        0.0,
        0.0,
        0.0,
        0.0,
        0.0,
        1.0,
        0.0,
        0.0,
        -1.0,
        0.0,
        0.0,
        0.0,
        0.0,
        0.0,
        1.0
      ],
      "name": "de3ec04f18da469eaa0b87804013ceb2.fbx"
    },
    {
      "children": [
        3
      ],
      "name": "RootNode"
    },
    {
      "children": [
        4,
        5
      ],
      "matrix": [
        1.0,
        0.0,
        0.0,
        0.0,
        0.0,
        1.0,
        0.0,
        0.0,
        0.0,
        0.0,
        1.0,
        0.0,
        12.23034954071045,
        -18.95977783203125,
        -3.5498123168945313,
        1.0
      ],
      "name": "Plane.008"
    },
    {
      "mesh": 0,
      "name": "Plane.008_aiStandardSurface1_0"
    },
    {
      "mesh": 1,
      "name": "Plane.008_lambert4_0"
    }
  ],
  "samplers": [
    {
      "magFilter": 9729,
      "minFilter": 9987,
      "wrapS": 10497,
      "wrapT": 10497
    }
  ],
  "scene": 0,
  "scenes": [
    {
      "name": "Sketchfab_Scene",
      "nodes": [
        0
      ]
    }
  ],
  "textures": [
    {
      "sampler": 0,
      "source": 0
    },
    {
      "sampler": 0,
      "source": 1
    },
    {
      "sampler": 0,
      "source": 2
    },
    {
      "sampler": 0,
      "source": 3
    },
    {
      "sampler": 0,
      "source": 4
    }
  ]
}
